<?xml version="1.0" encoding="UTF-8" standalone="no"?>
<svg
   xmlns:dc="http://purl.org/dc/elements/1.1/"
   xmlns:cc="http://creativecommons.org/ns#"
   xmlns:rdf="http://www.w3.org/1999/02/22-rdf-syntax-ns#"
   xmlns:svg="http://www.w3.org/2000/svg"
   xmlns="http://www.w3.org/2000/svg"
   xmlns:sodipodi="http://sodipodi.sourceforge.net/DTD/sodipodi-0.dtd"
   xmlns:inkscape="http://www.inkscape.org/namespaces/inkscape"
   width="223px"
   height="30px"
   viewBox="0 0 223 30"
   version="1.1"
   id="svg12"
   sodipodi:docname="githubbutton_github.svg"
   inkscape:version="1.0.1 (3bc2e813f5, 2020-09-07)">
  <metadata
     id="metadata18">
    <rdf:RDF>
      <cc:Work
         rdf:about="">
        <dc:format>image/svg+xml</dc:format>
        <dc:type
           rdf:resource="http://purl.org/dc/dcmitype/StillImage" />
        <dc:title>Artboard</dc:title>
      </cc:Work>
    </rdf:RDF>
  </metadata>
  <defs
     id="defs16" />
  <sodipodi:namedview
     pagecolor="#ffffff"
     bordercolor="#666666"
     borderopacity="1"
     objecttolerance="10"
     gridtolerance="10"
     guidetolerance="10"
     inkscape:pageopacity="0"
     inkscape:pageshadow="2"
     inkscape:window-width="2560"
     inkscape:window-height="1369"
     id="namedview14"
     showgrid="false"
     inkscape:zoom="4.6726457"
     inkscape:cx="47.68323"
     inkscape:cy="-2.476959"
     inkscape:window-x="1272"
     inkscape:window-y="-8"
     inkscape:window-maximized="1"
     inkscape:current-layer="svg12" />
  <!-- Generator: Sketch 53.2 (72643) - https://sketchapp.com -->
  <title
     id="title2">Artboard</title>
  <desc
     id="desc4">Created with Sketch.</desc>
  <rect
     id="Rectangle"
     fill="#ff5e5b"
     x="0"
     y="0"
     width="223"
     height="30"
     rx="8"
     style="fill-rule:evenodd;stroke:none;stroke-width:1;fill:#202020;fill-opacity:1" />
  <text
     xml:space="preserve"
     style="font-style:normal;font-variant:normal;font-weight:normal;font-stretch:normal;font-size:20.706px;line-height:1.25;font-family:X-Files;-inkscape-font-specification:X-Files;fill:#ffffff;fill-opacity:1;stroke:none;stroke-width:0.776473"
     x="59.921806"
     y="21.925207"
     id="text870"
     transform="scale(1.0341354,0.96699136)"><tspan
       sodipodi:role="line"
       id="tspan868"
       x="59.921806"
       y="21.925207"
       style="font-style:normal;font-variant:normal;font-weight:normal;font-stretch:normal;font-size:20.706px;font-family:Tahoma;-inkscape-font-specification:Tahoma;fill:#ffffff;fill-opacity:1;stroke-width:0.776473">github project</tspan></text>
  <path
     d="m 19.340746,22.041288 c 0,0.09675 -0.111273,0.174162 -0.251577,0.174162 -0.159651,0.01456 -0.270925,-0.0629 -0.270925,-0.174162 0,-0.09676 0.111274,-0.174171 0.251571,-0.174171 0.145139,-0.01448 0.270931,0.0629 0.270931,0.174171 z m -1.504615,-0.217711 c -0.03387,0.09676 0.0629,0.208034 0.208035,0.237057 0.125785,0.04843 0.270923,0 0.299955,-0.09675 0.02904,-0.09676 -0.0629,-0.208036 -0.208036,-0.251579 -0.125784,-0.03387 -0.266089,0.01449 -0.299954,0.111274 z m 2.138391,-0.08226 c -0.140304,0.03387 -0.237065,0.125785 -0.222547,0.237059 0.01448,0.09676 0.140297,0.159649 0.285442,0.125784 0.140297,-0.03386 0.23706,-0.125784 0.222548,-0.222546 -0.01455,-0.09192 -0.145138,-0.154817 -0.285443,-0.140297 z M 23.157915,3.202169 c -6.710285,0 -11.843389,5.0943961 -11.843389,11.804681 0,5.365328 3.376911,9.956578 8.200383,11.572467 0.619263,0.111273 0.836976,-0.270931 0.836976,-0.585398 0,-0.299953 -0.01449,-1.954544 -0.01449,-2.970525 0,0 -3.386595,0.725702 -4.097778,-1.44172 0,0 -0.551533,-1.407853 -1.344958,-1.770705 0,0 -1.107899,-0.75956 0.07742,-0.745048 0,0 1.204653,0.09676 1.86746,1.248204 1.059522,1.86746 2.835062,1.330446 3.526892,1.011138 0.111273,-0.774079 0.425746,-1.311093 0.774078,-1.630401 -2.704434,-0.299955 -5.433059,-0.69183 -5.433059,-5.345974 0,-1.330447 0.367687,-1.998088 1.141766,-2.849575 -0.125785,-0.314466 -0.537013,-1.611047 0.125785,-3.28499 1.011145,-0.3144739 3.33821,1.3062503 3.33821,1.3062503 0.967603,-0.2709243 2.007764,-0.4112284 3.038255,-0.4112284 1.030492,0 2.070661,0.1403041 3.038257,0.4112284 0,0 2.327071,-1.6255597 3.338209,-1.3062503 0.662806,1.678778 0.251577,2.970524 0.125793,3.28499 0.774078,0.856322 1.248195,1.523963 1.248195,2.849575 0,4.668656 -2.849574,5.041185 -5.554001,5.345974 0.445094,0.382198 0.822456,1.107898 0.822456,2.244821 0,1.630411 -0.01456,3.647842 -0.01456,4.04456 0,0.314472 0.222546,0.69667 0.836974,0.585397 4.837985,-1.606212 8.11814,-6.197462 8.11814,-11.56279 0,-6.7102849 -5.442735,-11.804681 -12.15302,-11.804681 z m -7.140867,16.686209 c -0.0629,0.04833 -0.04834,0.159658 0.03387,0.251578 0.07742,0.07742 0.188681,0.111273 0.251577,0.04834 0.0629,-0.04834 0.04834,-0.159659 -0.03386,-0.251579 -0.07742,-0.07741 -0.188682,-0.111272 -0.25158,-0.04833 z m -0.522502,-0.391876 c -0.03387,0.0629 0.01448,0.140305 0.111274,0.188683 0.07741,0.04834 0.17417,0.03387 0.208035,-0.03387 0.03387,-0.0629 -0.01456,-0.140303 -0.111274,-0.188679 -0.09676,-0.02904 -0.174168,-0.01449 -0.208035,0.03386 z m 1.567505,1.722321 c -0.07741,0.0629 -0.04833,0.208035 0.0629,0.299962 0.111275,0.111275 0.251578,0.125786 0.314467,0.04835 0.0629,-0.0629 0.03387,-0.208034 -0.0629,-0.299955 -0.106439,-0.111272 -0.251577,-0.125792 -0.314474,-0.04843 z m -0.551532,-0.711182 c -0.07742,0.04843 -0.07742,0.17417 0,0.285443 0.07741,0.111274 0.208034,0.159652 0.270931,0.111274 0.07741,-0.0629 0.07741,-0.188682 0,-0.299955 -0.06774,-0.111274 -0.193523,-0.159651 -0.270931,-0.09676 z"
     id="path882"
     style="fill:#ffffff;fill-opacity:1;stroke-width:0.0483798" />
</svg>
