<?xml version="1.0" encoding="UTF-8" standalone="no"?>
<svg
   xmlns:dc="http://purl.org/dc/elements/1.1/"
   xmlns:cc="http://creativecommons.org/ns#"
   xmlns:rdf="http://www.w3.org/1999/02/22-rdf-syntax-ns#"
   xmlns:svg="http://www.w3.org/2000/svg"
   xmlns="http://www.w3.org/2000/svg"
   xmlns:sodipodi="http://sodipodi.sourceforge.net/DTD/sodipodi-0.dtd"
   xmlns:inkscape="http://www.inkscape.org/namespaces/inkscape"
   width="223px"
   height="30px"
   viewBox="0 0 223 30"
   version="1.1"
   id="svg12"
   sodipodi:docname="button_docker.svg"
   inkscape:version="1.0.1 (3bc2e813f5, 2020-09-07)">
  <metadata
     id="metadata18">
    <rdf:RDF>
      <cc:Work
         rdf:about="">
        <dc:format>image/svg+xml</dc:format>
        <dc:type
           rdf:resource="http://purl.org/dc/dcmitype/StillImage" />
        <dc:title>Artboard</dc:title>
      </cc:Work>
    </rdf:RDF>
  </metadata>
  <defs
     id="defs16" />
  <sodipodi:namedview
     pagecolor="#ffffff"
     bordercolor="#666666"
     borderopacity="1"
     objecttolerance="10"
     gridtolerance="10"
     guidetolerance="10"
     inkscape:pageopacity="0"
     inkscape:pageshadow="2"
     inkscape:window-width="2560"
     inkscape:window-height="1369"
     id="namedview14"
     showgrid="false"
     inkscape:zoom="3.3040595"
     inkscape:cx="148.14084"
     inkscape:cy="101.98594"
     inkscape:window-x="1272"
     inkscape:window-y="-8"
     inkscape:window-maximized="1"
     inkscape:current-layer="svg12"
     inkscape:document-rotation="0" />
  <!-- Generator: Sketch 53.2 (72643) - https://sketchapp.com -->
  <title
     id="title2">Artboard</title>
  <desc
     id="desc4">Created with Sketch.</desc>
  <rect
     id="Rectangle"
     fill="#ff5e5b"
     x="0"
     y="0"
     width="223"
     height="30"
     rx="8"
     style="fill-rule:evenodd;stroke:none;stroke-width:1;fill:#3466d4;fill-opacity:1" />
  <text
     xml:space="preserve"
     style="font-style:normal;font-variant:normal;font-weight:normal;font-stretch:normal;font-size:20.706px;line-height:1.25;font-family:X-Files;-inkscape-font-specification:X-Files;fill:#ffffff;fill-opacity:1;stroke:none;stroke-width:0.776473"
     x="70.165176"
     y="21.612217"
     id="text870"
     transform="scale(1.0341354,0.96699136)"><tspan
       sodipodi:role="line"
       id="tspan868"
       x="70.165176"
       y="21.612217"
       style="font-style:normal;font-variant:normal;font-weight:normal;font-stretch:normal;font-size:20.706px;font-family:Tahoma;-inkscape-font-specification:Tahoma;fill:#ffffff;fill-opacity:1;stroke-width:0.776473">docker repo</tspan></text>
  <path
     d="m 34.331984,14.238069 h -3.586469 v -3.392128 h 3.586469 z m 0,-11.6668679 h -3.586469 v 3.4663685 h 3.586469 z m 4.24299,8.2690279 h -3.586469 v 3.392128 h 3.586469 z M 30.094417,6.7228471 h -3.586465 v 3.4321039 h 3.586465 z m 4.237567,0 h -3.586469 v 3.4321039 h 3.586469 z M 49.350648,12.433499 C 48.56933,11.879568 46.76796,11.679693 45.384374,11.953804 45.205325,10.58325 44.478263,9.3897209 43.154362,8.3161178 L 42.394747,7.7850301 41.890149,8.5845212 c -0.998351,1.5875628 -1.269644,4.2030388 -0.200756,5.9276588 -0.472046,0.2684 -1.39986,0.633881 -2.626097,0.611041 H 15.47726 c -0.472044,2.901013 0.314697,6.670042 2.387362,9.25697 2.012979,2.506975 5.029735,3.780453 8.974306,3.780453 8.540236,0 14.861315,-4.140226 17.818388,-11.661156 1.161124,0.02285 3.667855,0.0057 4.953771,-2.581216 0.0814,-0.142766 0.358106,-0.753806 0.461196,-0.976522 z m -27.731362,-1.59327 h -3.581037 v 3.392128 h 3.586464 v -3.392128 z m 4.237568,0 h -3.586469 v 3.392128 h 3.586469 z m 4.237563,0 h -3.586465 v 3.392128 h 3.586465 z M 25.856854,6.7228471 h -3.586469 v 3.4321039 h 3.586469 z"
     id="path835"
     style="stroke-width:0.0556642;fill:#ffffff" />
</svg>
