<?xml version="1.0" encoding="UTF-8" standalone="no"?>
<svg
   xmlns:dc="http://purl.org/dc/elements/1.1/"
   xmlns:cc="http://creativecommons.org/ns#"
   xmlns:rdf="http://www.w3.org/1999/02/22-rdf-syntax-ns#"
   xmlns:svg="http://www.w3.org/2000/svg"
   xmlns="http://www.w3.org/2000/svg"
   xmlns:sodipodi="http://sodipodi.sourceforge.net/DTD/sodipodi-0.dtd"
   xmlns:inkscape="http://www.inkscape.org/namespaces/inkscape"
   width="170"
   height="30"
   viewBox="0 0 170 30"
   version="1.1"
   id="svg12"
   sodipodi:docname="button_github.svg"
   inkscape:version="1.0.1 (3bc2e813f5, 2020-09-07)">
  <metadata
     id="metadata18">
    <rdf:RDF>
      <cc:Work
         rdf:about="">
        <dc:format>image/svg+xml</dc:format>
        <dc:type
           rdf:resource="http://purl.org/dc/dcmitype/StillImage" />
        <dc:title>Artboard</dc:title>
      </cc:Work>
    </rdf:RDF>
  </metadata>
  <defs
     id="defs16" />
  <sodipodi:namedview
     pagecolor="#ffffff"
     bordercolor="#666666"
     borderopacity="1"
     objecttolerance="10"
     gridtolerance="10"
     guidetolerance="10"
     inkscape:pageopacity="0"
     inkscape:pageshadow="2"
     inkscape:window-width="2560"
     inkscape:window-height="1369"
     id="namedview14"
     showgrid="false"
     inkscape:zoom="4.6726457"
     inkscape:cx="47.68323"
     inkscape:cy="-2.476959"
     inkscape:window-x="1272"
     inkscape:window-y="-8"
     inkscape:window-maximized="1"
     inkscape:current-layer="svg12"
     inkscape:document-rotation="0" />
  <!-- Generator: Sketch 53.2 (72643) - https://sketchapp.com -->
  <title
     id="title2">Artboard</title>
  <desc
     id="desc4">Created with Sketch.</desc>
  <rect
     id="Rectangle"
     fill="#ff5e5b"
     x="0"
     y="0"
     width="170"
     height="30"
     rx="6.0986547"
     style="fill:#80007e;fill-opacity:1;fill-rule:evenodd;stroke:none;stroke-width:0.873116" />
  <text
     xml:space="preserve"
     style="font-style:normal;font-variant:normal;font-weight:normal;font-stretch:normal;font-size:19.2552px;line-height:1.25;font-family:X-Files;-inkscape-font-specification:X-Files;fill:#ffffff;fill-opacity:1;stroke:none;stroke-width:0.722071"
     x="42.959896"
     y="20.834278"
     id="text870"
     transform="scale(1.0341354,0.96699136)"><tspan
       sodipodi:role="line"
       id="tspan868"
       x="42.959896"
       y="20.834278"
       style="font-style:normal;font-variant:normal;font-weight:normal;font-stretch:normal;font-size:19.2552px;font-family:Tahoma;-inkscape-font-specification:Tahoma;fill:#ffffff;fill-opacity:1;stroke-width:0.722071">github repo</tspan></text>
  <path
     d="m 21.689519,20.501619 c 0,0.08064 -0.09274,0.145157 -0.209679,0.145157 -0.133062,0.01214 -0.225804,-0.05242 -0.225804,-0.145157 0,-0.08065 0.09274,-0.145164 0.209674,-0.145164 0.120967,-0.01207 0.225809,0.05242 0.225809,0.145164 z m -1.254034,-0.181453 c -0.02823,0.08065 0.05242,0.173388 0.173389,0.197577 0.104837,0.04037 0.225803,0 0.25,-0.08064 0.0242,-0.08065 -0.05242,-0.173389 -0.173389,-0.20968 -0.104836,-0.02823 -0.221774,0.01208 -0.25,0.09274 z m 1.78226,-0.06856 c -0.116937,0.02823 -0.197584,0.104836 -0.185484,0.197579 0.01207,0.08065 0.116932,0.13306 0.237904,0.104835 0.116932,-0.02822 0.19758,-0.104835 0.185485,-0.185482 -0.01213,-0.07661 -0.120967,-0.129034 -0.237905,-0.116932 z M 24.87097,4.8 C 19.278228,4.8 15,9.0459664 15,14.638709 c 0,4.471777 2.814514,8.298392 6.834677,9.645168 0.51613,0.09274 0.697584,-0.22581 0.697584,-0.487905 0,-0.249998 -0.01208,-1.629031 -0.01208,-2.475809 0,0 -2.822586,0.604843 -3.415327,-1.201613 0,0 -0.45968,-1.173387 -1.120967,-1.475809 0,0 -0.923387,-0.633061 0.06453,-0.620966 0,0 1.004028,0.08064 1.55645,1.040326 0.883067,1.55645 2.362905,1.108871 2.939517,0.842741 0.09274,-0.645162 0.354841,-1.092741 0.645162,-1.358871 -2.254033,-0.25 -4.528228,-0.576611 -4.528228,-4.455646 0,-1.108872 0.306452,-1.665323 0.951614,-2.375002 -0.104837,-0.262094 -0.447578,-1.34274 0.104837,-2.7379019 0.842747,-0.2621009 2.782258,1.0887049 2.782258,1.0887049 0.806457,-0.2258039 1.673388,-0.3427414 2.532259,-0.3427414 0.858872,0 1.725809,0.1169375 2.53226,0.3427414 0,0 1.939517,-1.354836 2.782258,-1.0887049 0.552421,1.3991909 0.209679,2.4758079 0.104843,2.7379019 0.645162,0.713709 1.040319,1.27016 1.040319,2.375002 0,3.89113 -2.375001,4.201617 -4.629028,4.455646 0.370967,0.318546 0.685483,0.923387 0.685483,1.870965 0,1.358879 -0.01214,3.040324 -0.01214,3.370971 0,0.2621 0.185483,0.580646 0.697583,0.487904 C 32.266128,22.937101 35,19.110486 35,14.638709 35,9.0459664 30.463708,4.8 24.870965,4.8 Z m -5.951614,13.907259 c -0.05242,0.04028 -0.04029,0.133068 0.02823,0.209679 0.06453,0.06453 0.157258,0.09274 0.209679,0.04029 0.05242,-0.04029 0.04029,-0.133069 -0.02822,-0.209681 -0.06453,-0.06452 -0.157259,-0.09274 -0.209681,-0.04028 z m -0.435484,-0.326613 c -0.02823,0.05243 0.01207,0.116939 0.09274,0.15726 0.06452,0.04029 0.145164,0.02823 0.173389,-0.02823 0.02823,-0.05242 -0.01214,-0.116936 -0.09274,-0.157256 -0.08065,-0.0242 -0.145162,-0.01208 -0.173389,0.02822 z m 1.30645,1.435483 c -0.06452,0.05242 -0.04028,0.173388 0.05242,0.250006 0.09274,0.09274 0.209679,0.104837 0.262095,0.0403 0.05242,-0.05242 0.02823,-0.173387 -0.05243,-0.25 -0.08871,-0.09274 -0.209679,-0.104842 -0.262101,-0.04036 z m -0.459679,-0.592741 c -0.06453,0.04037 -0.06453,0.145164 0,0.237905 0.06452,0.09274 0.173388,0.133063 0.22581,0.09274 0.06452,-0.05242 0.06452,-0.157258 0,-0.25 -0.05646,-0.09274 -0.161293,-0.133062 -0.22581,-0.08065 z"
     id="path882"
     style="fill:#ffffff;fill-opacity:1;stroke-width:0.0403225" />
</svg>
